<?xml version="1.0" encoding="UTF-8" standalone="no" ?>
<!DOCTYPE svg PUBLIC "-//W3C//DTD SVG 1.1//EN" "http://www.w3.org/Graphics/SVG/1.1/DTD/svg11.dtd">
<svg xmlns="http://www.w3.org/2000/svg" xmlns:xlink="http://www.w3.org/1999/xlink" version="1.1" width="500" height="500" viewBox="0 0 500 500" xml:space="preserve">
<desc>Created with Fabric.js 4.5.0</desc>
<defs>
</defs>
<g transform="matrix(1 0 0 1 250 276.5)"  >
<polygon style="stroke: rgb(140,244,236); stroke-width: 1; stroke-dasharray: none; stroke-linecap: butt; stroke-dashoffset: 0; stroke-linejoin: miter; stroke-miterlimit: 4; fill: rgb(140,244,236); fill-rule: nonzero; opacity: 1;"  points="69,141.5 -71,102.5 -112,44.5 -153.88,15.5 -153.88,-141.5 153.88,-141.5 153.88,72.5 69,141.5 " />
</g>
<g transform="matrix(1 0 0 1 254.5 160.8)"  >
<polygon style="stroke: rgb(0,187,242); stroke-width: 1; stroke-dasharray: none; stroke-linecap: butt; stroke-dashoffset: 0; stroke-linejoin: miter; stroke-miterlimit: 4; fill: rgb(0,187,242); fill-rule: nonzero; opacity: 1;"  points="-158.37,94.8 -95.5,94.8 -95.5,38.2 184.5,38.2 184.5,-94.8 -83.5,-94.8 -83.5,-47.8 -184.5,-47.8 -184.5,81.2 -158.37,94.8 " />
</g>
<g transform="matrix(1 0 0 1 303.99 237.94)"  >
<g style=""   >
		<g transform="matrix(1 0 0 1 53.5 0)"  >
<path style="stroke: rgb(0,122,94); stroke-width: 1; stroke-dasharray: none; stroke-linecap: butt; stroke-dashoffset: 0; stroke-linejoin: miter; stroke-miterlimit: 4; fill: rgb(0,122,94); fill-rule: nonzero; opacity: 1;"  transform=" translate(-357.49, -217.95)" d="M 330 230 C 326.96632589875253 230.0048652140132 324.2747952681202 228.05507090950877 323.3339344869933 225.1709795077976 C 322.39307370586636 222.28688810608645 323.41705074243 219.1250048074652 325.87 217.34 C 346.87 202.06 368.78 202.08 389.19 217.4 C 392.2827943433376 219.71959603171402 392.90959553845744 224.10720528671996 390.58999968223833 227.19999976167875 C 388.2704038260193 230.29279423663755 383.88279460658 230.91959568072417 380.79 228.6 C 365.36 217.01999999999998 350.09000000000003 217.04 334.11 228.66 C 332.91568829242794 229.52910397179943 331.4770642252357 229.99814442193022 330 230 Z" stroke-linecap="round" />
</g>
		<g transform="matrix(1 0 0 1 -53.5 0)"  >
<path style="stroke: rgb(0,122,94); stroke-width: 1; stroke-dasharray: none; stroke-linecap: butt; stroke-dashoffset: 0; stroke-linejoin: miter; stroke-miterlimit: 4; fill: rgb(0,122,94); fill-rule: nonzero; opacity: 1;"  transform=" translate(-250.49, -217.95)" d="M 223 230 C 219.96632589875253 230.0048652140132 217.27479526812024 228.05507090950877 216.3339344869933 225.1709795077976 C 215.39307370586636 222.28688810608645 216.41705074243 219.1250048074652 218.87 217.34 C 239.87 202.06 261.78 202.08 282.19 217.4 C 285.2827943433376 219.71959603171402 285.90959553845744 224.10720528671996 283.58999968223833 227.19999976167875 C 281.2704038260193 230.29279423663755 276.88279460658 230.91959568072417 273.79 228.6 C 258.36 217.01999999999998 243.09000000000003 217.04 227.11 228.66 C 225.91568829242794 229.52910397179943 224.47706422523575 229.99814442193022 223 230 Z" stroke-linecap="round" />
</g>
</g>
</g>
<g transform="matrix(1 0 0 1 295.67 330.33)"  >
<path style="stroke: rgb(0,122,94); stroke-width: 1; stroke-dasharray: none; stroke-linecap: butt; stroke-dashoffset: 0; stroke-linejoin: miter; stroke-miterlimit: 4; fill: rgb(0,122,94); fill-rule: nonzero; opacity: 1;"  transform=" translate(-295.68, -310.33)" d="M 300.61 331.66 C 297.66377111763177 331.6558972709334 294.72320993670803 331.40165079795247 291.82 330.90000000000003 C 263.31 326.01000000000005 249.72 313.33000000000004 243.69 304.99 C 242.43121670938862 303.26620969794646 242.06909974107057 301.0457927425291 242.71497615996262 299.0113807808813 C 243.36085257885466 296.9769688192336 244.93742445358257 295.3720385159288 246.96 294.69 L 246.96 294.69 C 249.68253376149354 293.7727168885775 252.686641029588 294.69891618034933 254.42000000000002 296.99 C 258.69 302.68 269.56 312.88 294.18 317.1 C 322.52 321.97 335.47 293.46000000000004 335.6 293.17 C 336.40487322114546 291.34676023483627 337.9487560036532 289.9530479159963 339.8445674320507 289.3382933541192 C 341.7403788604483 288.723538792242 343.808349647409 288.946035754215 345.53000000000003 289.95 C 348.6644422858051 291.8877296412765 349.833245096932 295.8771857309162 348.24 299.2 C 342.71 311.37 326.4 331.66 300.61 331.66 Z" stroke-linecap="round" />
</g>
</svg>