<?xml version="1.0" encoding="UTF-8" standalone="no" ?>
<!DOCTYPE svg PUBLIC "-//W3C//DTD SVG 1.1//EN" "http://www.w3.org/Graphics/SVG/1.1/DTD/svg11.dtd">
<svg xmlns="http://www.w3.org/2000/svg" xmlns:xlink="http://www.w3.org/1999/xlink" version="1.1" width="500" height="500" viewBox="0 0 500 500" xml:space="preserve">
<desc>Created with Fabric.js 4.5.0</desc>
<defs>
</defs>
<g transform="matrix(1 0 0 1 250 276.5)"  >
<polygon style="stroke: rgb(140,244,236); stroke-width: 1; stroke-dasharray: none; stroke-linecap: butt; stroke-dashoffset: 0; stroke-linejoin: miter; stroke-miterlimit: 4; fill: rgb(140,244,236); fill-rule: nonzero; opacity: 1;"  points="69,141.5 -71,102.5 -112,44.5 -153.88,15.5 -153.88,-141.5 153.88,-141.5 153.88,72.5 69,141.5 " />
</g>
<g transform="matrix(1 0 0 1 274.24 174.34)"  >
<path style="stroke: rgb(0,187,242); stroke-width: 1; stroke-dasharray: none; stroke-linecap: butt; stroke-dashoffset: 0; stroke-linejoin: miter; stroke-miterlimit: 4; fill: rgb(0,187,242); fill-rule: nonzero; opacity: 1;"  transform=" translate(-274.24, -154.34)" d="M 424 152.7 L 423.83 114.36999999999999 C 423.82794604426846 112.71977070057804 424.482808457881 111.13658684349286 425.65 109.96999999999998 L 468.46999999999997 67.13999999999999 C 470.24470570110964 65.37347913567203 470.7780357109481 62.71063934018956 469.8205500767303 60.39689831105002 C 468.8630644425125 58.08315728191049 466.60402860128676 56.57587040017334 464.09999999999997 56.579999999999984 L 139.15 56.579999999999984 C 137.50670195360192 56.583249042492696 135.93168640547546 57.23770755792424 134.77 58.399999999999984 L 80 113.19 C 78.84103492673626 114.34900755655319 78.18995751615995 115.92094583512693 78.19 117.56 L 78.19 245.9 C 78.18587040017336 248.40402860128683 79.6931572819105 250.66306444251256 82.00689831105004 251.62055007673035 C 84.32063934018957 252.57803571094811 86.98347913567204 252.04470570110968 88.75 250.27 L 132.21 206.81 C 133.36896507326375 205.6509924434468 134.02004248384006 204.07905416487307 134.02 202.44 L 134.02 161.27 C 134.01982451736117 159.61524875291573 134.68326969621148 158.02954696779892 135.86178319007917 156.86794993556572 C 137.04029668394682 155.70635290333254 138.6354242262498 155.06590167142744 140.29000000000002 155.09 L 417.72 158.91 C 419.38151043706137 158.93690945936015 420.98385112991116 158.2935680426175 422.1654373223863 157.12515239687374 C 423.34702351486146 155.95673675112997 424.00828453796055 154.36170768124165 424 152.7 Z" stroke-linecap="round" />
</g>
<g transform="matrix(1 0 0 1 304 239.98)"  >
<g style=""   >
		<g transform="matrix(1 0 0 1 -52.41 0)"  >
<path style="stroke: rgb(0,122,94); stroke-width: 1; stroke-dasharray: none; stroke-linecap: butt; stroke-dashoffset: 0; stroke-linejoin: miter; stroke-miterlimit: 4; fill: rgb(0,122,94); fill-rule: nonzero; opacity: 1;"  transform=" translate(-251.59, -219.98)" d="M 268.17 240.48 L 235 240.48 C 224.50658975321494 240.48 216 231.97341024678508 216 221.48 L 216 218.48 C 216 207.9865897532149 224.50658975321494 199.48 235 199.48 L 268.17 199.48 C 278.6634102467851 199.48 287.17 207.9865897532149 287.17 218.48 L 287.17 221.48 C 287.17 231.97341024678508 278.6634102467851 240.48 268.17 240.48 Z M 235 213.48 C 232.25432433731513 213.51765411995797 230.03765411995798 215.73432433731512 230 218.48 L 230 221.48 C 230.03765411995798 224.22567566268486 232.25432433731513 226.442345880042 235 226.48 L 268.17 226.48 C 270.9156756626849 226.442345880042 273.132345880042 224.22567566268486 273.17 221.48 L 273.17 218.48 C 273.132345880042 215.73432433731512 270.9156756626849 213.51765411995797 268.17 213.48 Z" stroke-linecap="round" />
</g>
		<g transform="matrix(1 0 0 1 52.85 -0.18)"  >
<path style="stroke: rgb(0,122,94); stroke-width: 1; stroke-dasharray: none; stroke-linecap: butt; stroke-dashoffset: 0; stroke-linejoin: miter; stroke-miterlimit: 4; fill: rgb(0,122,94); fill-rule: nonzero; opacity: 1;"  transform=" translate(-356.85, -219.79)" d="M 373 240.07 L 340.7 240.07 C 330.2065897532149 240.07 321.7 231.56341024678505 321.7 221.07 L 321.7 218.51999999999998 C 321.7 208.02658975321492 330.2065897532149 199.51999999999998 340.7 199.51999999999998 L 373 199.51999999999998 C 383.49341024678506 199.51999999999998 392 208.0265897532149 392 218.51999999999998 L 392 221.07 C 392 231.56341024678505 383.49341024678506 240.07 373 240.07 Z M 340.7 213.51999999999998 C 337.9543243373151 213.55765411995796 335.737654119958 215.7743243373151 335.7 218.51999999999998 L 335.7 221.07 C 335.7 223.83142374915397 337.93857625084604 226.07 340.7 226.07 L 373 226.07 C 375.76142374915395 226.07 378 223.83142374915397 378 221.07 L 378 218.51999999999998 C 377.962345880042 215.7743243373151 375.7456756626849 213.55765411995796 373 213.51999999999998 Z" stroke-linecap="round" />
</g>
</g>
</g>
<g transform="matrix(1 0 0 1 295.67 330.33)"  >
<path style="stroke: rgb(0,122,94); stroke-width: 1; stroke-dasharray: none; stroke-linecap: butt; stroke-dashoffset: 0; stroke-linejoin: miter; stroke-miterlimit: 4; fill: rgb(0,122,94); fill-rule: nonzero; opacity: 1;"  transform=" translate(-295.68, -310.33)" d="M 300.61 331.66 C 297.66377111763177 331.6558972709334 294.72320993670803 331.40165079795247 291.82 330.90000000000003 C 263.31 326.01000000000005 249.72 313.33000000000004 243.69 304.99 C 242.43121670938862 303.26620969794646 242.06909974107057 301.0457927425291 242.71497615996262 299.0113807808813 C 243.36085257885466 296.9769688192336 244.93742445358257 295.3720385159288 246.96 294.69 L 246.96 294.69 C 249.68253376149354 293.7727168885775 252.686641029588 294.69891618034933 254.42000000000002 296.99 C 258.69 302.68 269.56 312.88 294.18 317.1 C 322.52 321.97 335.47 293.46000000000004 335.6 293.17 C 336.40487322114546 291.34676023483627 337.9487560036532 289.9530479159963 339.8445674320507 289.3382933541192 C 341.7403788604483 288.723538792242 343.808349647409 288.946035754215 345.53000000000003 289.95 C 348.6644422858051 291.8877296412765 349.833245096932 295.8771857309162 348.24 299.2 C 342.71 311.37 326.4 331.66 300.61 331.66 Z" stroke-linecap="round" />
</g>
</svg>